<?xml version="1.0" encoding="UTF-8" standalone="no"?>
<!DOCTYPE svg PUBLIC "-//W3C//DTD SVG 1.1//EN"
 "http://www.w3.org/Graphics/SVG/1.1/DTD/svg11.dtd">
<!-- Generated by graphviz version 2.47.0 (20210316.0004)
 -->
<!-- Title: dependencies Pages: 1 -->
<svg width="504pt" height="284pt"
 viewBox="0.00 0.00 504.00 284.00" xmlns="http://www.w3.org/2000/svg" xmlns:xlink="http://www.w3.org/1999/xlink">
<g id="graph0" class="graph" transform="scale(1 1) rotate(0) translate(4 280)">
<title>dependencies</title>
<polygon fill="white" stroke="transparent" points="-4,4 -4,-280 500,-280 500,4 -4,4"/>
<text text-anchor="start" x="227.01" y="-42.4" font-family="sans-serif" font-weight="bold" font-size="14.00">Legend</text>
<polygon fill="#ffffb3" stroke="transparent" points="14,-10 14,-30 34,-30 34,-10 14,-10"/>
<text text-anchor="start" x="37.63" y="-15.4" font-family="sans-serif" font-size="14.00"> &#160;Declarations</text>
<polygon fill="#8dd3c7" stroke="transparent" points="127,-10 127,-30 147,-30 147,-10 127,-10"/>
<text text-anchor="start" x="150.73" y="-15.4" font-family="sans-serif" font-size="14.00"> &#160;Module</text>
<polygon fill="#80b1d3" stroke="transparent" points="213,-10 213,-30 233,-30 233,-10 213,-10"/>
<text text-anchor="start" x="236.78" y="-15.4" font-family="sans-serif" font-size="14.00"> &#160;Bootstrap</text>
<polygon fill="#fdb462" stroke="transparent" points="310,-10 310,-30 330,-30 330,-10 310,-10"/>
<text text-anchor="start" x="333.67" y="-15.4" font-family="sans-serif" font-size="14.00"> &#160;Providers</text>
<polygon fill="#fb8072" stroke="transparent" points="406,-10 406,-30 426,-30 426,-10 406,-10"/>
<text text-anchor="start" x="429.73" y="-15.4" font-family="sans-serif" font-size="14.00"> &#160;Exports</text>
<g id="clust1" class="cluster">
<title>cluster_ConfigurationSummaryModule</title>
<polygon fill="none" stroke="black" stroke-dasharray="1,5" points="41,-70 41,-268 455,-268 455,-70 41,-70"/>
</g>
<g id="clust2" class="cluster">
<title>cluster_ConfigurationSummaryModule_declarations</title>
<polygon fill="none" stroke="black" points="173,-78 173,-130 447,-130 447,-78 173,-78"/>
</g>
<g id="clust4" class="cluster">
<title>cluster_ConfigurationSummaryModule_imports</title>
<polygon fill="none" stroke="black" points="49,-78 49,-130 165,-130 165,-78 49,-78"/>
</g>
<g id="clust5" class="cluster">
<title>cluster_ConfigurationSummaryModule_exports</title>
<polygon fill="none" stroke="black" points="109,-208 109,-260 387,-260 387,-208 109,-208"/>
</g>
<!-- ProductConfigurationSummaryComponent -->
<g id="node1" class="node">
<title>ProductConfigurationSummaryComponent</title>
<polygon fill="#ffffb3" stroke="black" points="438.86,-122 181.14,-122 181.14,-86 438.86,-86 438.86,-122"/>
<text text-anchor="middle" x="310" y="-99.8" font-family="Times,serif" font-size="14.00">ProductConfigurationSummaryComponent</text>
</g>
<!-- ConfigurationSummaryModule -->
<g id="node2" class="node">
<title>ConfigurationSummaryModule</title>
<polygon fill="#8dd3c7" stroke="black" points="344.03,-187 341.03,-191 320.03,-191 317.03,-187 151.97,-187 151.97,-151 344.03,-151 344.03,-187"/>
<text text-anchor="middle" x="248" y="-164.8" font-family="Times,serif" font-size="14.00">ConfigurationSummaryModule</text>
</g>
<!-- ProductConfigurationSummaryComponent&#45;&gt;ConfigurationSummaryModule -->
<g id="edge1" class="edge">
<title>ProductConfigurationSummaryComponent&#45;&gt;ConfigurationSummaryModule</title>
<path fill="none" stroke="black" d="M262.67,-122.11C262.67,-122.11 262.67,-140.99 262.67,-140.99"/>
<polygon fill="black" stroke="black" points="259.17,-140.99 262.67,-150.99 266.17,-140.99 259.17,-140.99"/>
</g>
<!-- ProductConfigurationSummaryComponent  -->
<g id="node4" class="node">
<title>ProductConfigurationSummaryComponent </title>
<polygon fill="#fb8072" stroke="black" points="378.86,-252 117.14,-252 117.14,-216 378.86,-216 378.86,-252"/>
<text text-anchor="middle" x="248" y="-229.8" font-family="Times,serif" font-size="14.00">ProductConfigurationSummaryComponent </text>
</g>
<!-- ConfigurationSummaryModule&#45;&gt;ProductConfigurationSummaryComponent  -->
<g id="edge3" class="edge">
<title>ConfigurationSummaryModule&#45;&gt;ProductConfigurationSummaryComponent </title>
<path fill="none" stroke="black" stroke-dasharray="5,2" d="M248,-187.11C248,-187.11 248,-205.99 248,-205.99"/>
<polygon fill="black" stroke="black" points="244.5,-205.99 248,-215.99 251.5,-205.99 244.5,-205.99"/>
</g>
<!-- PricingModule -->
<g id="node3" class="node">
<title>PricingModule</title>
<polygon fill="#8dd3c7" stroke="black" points="156.99,-122 153.99,-126 132.99,-126 129.99,-122 57.01,-122 57.01,-86 156.99,-86 156.99,-122"/>
<text text-anchor="middle" x="107" y="-99.8" font-family="Times,serif" font-size="14.00">PricingModule</text>
</g>
<!-- PricingModule&#45;&gt;ConfigurationSummaryModule -->
<g id="edge2" class="edge">
<title>PricingModule&#45;&gt;ConfigurationSummaryModule</title>
<path fill="none" stroke="black" d="M157.07,-104C164.12,-104 169.03,-104 169.03,-104 169.03,-104 169.03,-140.89 169.03,-140.89"/>
<polygon fill="black" stroke="black" points="165.53,-140.89 169.03,-150.89 172.53,-140.89 165.53,-140.89"/>
</g>
</g>
</svg>
