<?xml version="1.0" encoding="UTF-8" standalone="no"?>
<!DOCTYPE svg PUBLIC "-//W3C//DTD SVG 1.1//EN"
 "http://www.w3.org/Graphics/SVG/1.1/DTD/svg11.dtd">
<!-- Generated by graphviz version 2.47.0 (20210316.0004)
 -->
<!-- Title: dependencies Pages: 1 -->
<svg width="740pt" height="284pt"
 viewBox="0.00 0.00 740.00 284.00" xmlns="http://www.w3.org/2000/svg" xmlns:xlink="http://www.w3.org/1999/xlink">
<g id="graph0" class="graph" transform="scale(1 1) rotate(0) translate(4 280)">
<title>dependencies</title>
<polygon fill="white" stroke="transparent" points="-4,4 -4,-280 736,-280 736,4 -4,4"/>
<text text-anchor="start" x="345.01" y="-42.4" font-family="sans-serif" font-weight="bold" font-size="14.00">Legend</text>
<polygon fill="#ffffb3" stroke="transparent" points="132,-10 132,-30 152,-30 152,-10 132,-10"/>
<text text-anchor="start" x="155.63" y="-15.4" font-family="sans-serif" font-size="14.00"> &#160;Declarations</text>
<polygon fill="#8dd3c7" stroke="transparent" points="245,-10 245,-30 265,-30 265,-10 245,-10"/>
<text text-anchor="start" x="268.73" y="-15.4" font-family="sans-serif" font-size="14.00"> &#160;Module</text>
<polygon fill="#80b1d3" stroke="transparent" points="331,-10 331,-30 351,-30 351,-10 331,-10"/>
<text text-anchor="start" x="354.78" y="-15.4" font-family="sans-serif" font-size="14.00"> &#160;Bootstrap</text>
<polygon fill="#fdb462" stroke="transparent" points="428,-10 428,-30 448,-30 448,-10 428,-10"/>
<text text-anchor="start" x="451.67" y="-15.4" font-family="sans-serif" font-size="14.00"> &#160;Providers</text>
<polygon fill="#fb8072" stroke="transparent" points="524,-10 524,-30 544,-30 544,-10 524,-10"/>
<text text-anchor="start" x="547.73" y="-15.4" font-family="sans-serif" font-size="14.00"> &#160;Exports</text>
<g id="clust1" class="cluster">
<title>cluster_ConstraintRuleModule</title>
<polygon fill="none" stroke="black" stroke-dasharray="1,5" points="8,-70 8,-268 724,-268 724,-70 8,-70"/>
</g>
<g id="clust6" class="cluster">
<title>cluster_ConstraintRuleModule_imports</title>
<polygon fill="none" stroke="black" points="609,-78 609,-130 713,-130 713,-78 609,-78"/>
</g>
<g id="clust2" class="cluster">
<title>cluster_ConstraintRuleModule_declarations</title>
<polygon fill="none" stroke="black" points="21,-78 21,-130 601,-130 601,-78 21,-78"/>
</g>
<g id="clust7" class="cluster">
<title>cluster_ConstraintRuleModule_exports</title>
<polygon fill="none" stroke="black" points="16,-208 16,-260 716,-260 716,-208 16,-208"/>
</g>
<!-- CRIconComponent -->
<g id="node1" class="node">
<title>CRIconComponent</title>
<polygon fill="#ffffb3" stroke="black" points="593.38,-122 468.62,-122 468.62,-86 593.38,-86 593.38,-122"/>
<text text-anchor="middle" x="531" y="-99.8" font-family="Times,serif" font-size="14.00">CRIconComponent</text>
</g>
<!-- ConstraintRuleModule -->
<g id="node4" class="node">
<title>ConstraintRuleModule</title>
<polygon fill="#8dd3c7" stroke="black" points="427.32,-187 424.32,-191 403.32,-191 400.32,-187 282.68,-187 282.68,-151 427.32,-151 427.32,-187"/>
<text text-anchor="middle" x="355" y="-164.8" font-family="Times,serif" font-size="14.00">ConstraintRuleModule</text>
</g>
<!-- CRIconComponent&#45;&gt;ConstraintRuleModule -->
<g id="edge1" class="edge">
<title>CRIconComponent&#45;&gt;ConstraintRuleModule</title>
<path fill="none" stroke="black" d="M552.23,-122.01C552.23,-138.05 552.23,-159 552.23,-159 552.23,-159 437.32,-159 437.32,-159"/>
<polygon fill="black" stroke="black" points="437.32,-155.5 427.32,-159 437.32,-162.5 437.32,-155.5"/>
</g>
<!-- ConstraintRuleAlertComponent -->
<g id="node2" class="node">
<title>ConstraintRuleAlertComponent</title>
<polygon fill="#ffffb3" stroke="black" points="450.37,-122 255.63,-122 255.63,-86 450.37,-86 450.37,-122"/>
<text text-anchor="middle" x="353" y="-99.8" font-family="Times,serif" font-size="14.00">ConstraintRuleAlertComponent</text>
</g>
<!-- ConstraintRuleAlertComponent&#45;&gt;ConstraintRuleModule -->
<g id="edge2" class="edge">
<title>ConstraintRuleAlertComponent&#45;&gt;ConstraintRuleModule</title>
<path fill="none" stroke="black" d="M355,-122.11C355,-122.11 355,-140.99 355,-140.99"/>
<polygon fill="black" stroke="black" points="351.5,-140.99 355,-150.99 358.5,-140.99 351.5,-140.99"/>
</g>
<!-- ConstraintRuleSidebarComponent -->
<g id="node3" class="node">
<title>ConstraintRuleSidebarComponent</title>
<polygon fill="#ffffb3" stroke="black" points="237.37,-122 28.63,-122 28.63,-86 237.37,-86 237.37,-122"/>
<text text-anchor="middle" x="133" y="-99.8" font-family="Times,serif" font-size="14.00">ConstraintRuleSidebarComponent</text>
</g>
<!-- ConstraintRuleSidebarComponent&#45;&gt;ConstraintRuleModule -->
<g id="edge3" class="edge">
<title>ConstraintRuleSidebarComponent&#45;&gt;ConstraintRuleModule</title>
<path fill="none" stroke="black" d="M166.98,-122.02C166.98,-139.37 166.98,-163 166.98,-163 166.98,-163 272.57,-163 272.57,-163"/>
<polygon fill="black" stroke="black" points="272.57,-166.5 282.57,-163 272.57,-159.5 272.57,-166.5"/>
</g>
<!-- AlertModule  -->
<g id="node6" class="node">
<title>AlertModule </title>
<polygon fill="#fb8072" stroke="black" points="707.81,-252 616.19,-252 616.19,-216 707.81,-216 707.81,-252"/>
<text text-anchor="middle" x="662" y="-229.8" font-family="Times,serif" font-size="14.00">AlertModule </text>
</g>
<!-- ConstraintRuleModule&#45;&gt;AlertModule  -->
<g id="edge5" class="edge">
<title>ConstraintRuleModule&#45;&gt;AlertModule </title>
<path fill="none" stroke="black" stroke-dasharray="5,2" d="M427.38,-173C513.64,-173 646.28,-173 646.28,-173 646.28,-173 646.28,-205.7 646.28,-205.7"/>
<polygon fill="black" stroke="black" points="642.78,-205.7 646.28,-215.7 649.78,-205.7 642.78,-205.7"/>
</g>
<!-- CRIconComponent  -->
<g id="node7" class="node">
<title>CRIconComponent </title>
<polygon fill="#fb8072" stroke="black" points="598.38,-252 469.62,-252 469.62,-216 598.38,-216 598.38,-252"/>
<text text-anchor="middle" x="534" y="-229.8" font-family="Times,serif" font-size="14.00">CRIconComponent </text>
</g>
<!-- ConstraintRuleModule&#45;&gt;CRIconComponent  -->
<g id="edge6" class="edge">
<title>ConstraintRuleModule&#45;&gt;CRIconComponent </title>
<path fill="none" stroke="black" stroke-dasharray="5,2" d="M427.53,-180C468.27,-180 511.02,-180 511.02,-180 511.02,-180 511.02,-205.72 511.02,-205.72"/>
<polygon fill="black" stroke="black" points="507.52,-205.72 511.02,-215.72 514.52,-205.72 507.52,-205.72"/>
</g>
<!-- ConstraintRuleAlertComponent  -->
<g id="node8" class="node">
<title>ConstraintRuleAlertComponent </title>
<polygon fill="#fb8072" stroke="black" points="452.37,-252 253.63,-252 253.63,-216 452.37,-216 452.37,-252"/>
<text text-anchor="middle" x="353" y="-229.8" font-family="Times,serif" font-size="14.00">ConstraintRuleAlertComponent </text>
</g>
<!-- ConstraintRuleModule&#45;&gt;ConstraintRuleAlertComponent  -->
<g id="edge7" class="edge">
<title>ConstraintRuleModule&#45;&gt;ConstraintRuleAlertComponent </title>
<path fill="none" stroke="black" stroke-dasharray="5,2" d="M355,-187.11C355,-187.11 355,-205.99 355,-205.99"/>
<polygon fill="black" stroke="black" points="351.5,-205.99 355,-215.99 358.5,-205.99 351.5,-205.99"/>
</g>
<!-- ConstraintRuleSidebarComponent  -->
<g id="node9" class="node">
<title>ConstraintRuleSidebarComponent </title>
<polygon fill="#fb8072" stroke="black" points="236.37,-252 23.63,-252 23.63,-216 236.37,-216 236.37,-252"/>
<text text-anchor="middle" x="130" y="-229.8" font-family="Times,serif" font-size="14.00">ConstraintRuleSidebarComponent </text>
</g>
<!-- ConstraintRuleModule&#45;&gt;ConstraintRuleSidebarComponent  -->
<g id="edge8" class="edge">
<title>ConstraintRuleModule&#45;&gt;ConstraintRuleSidebarComponent </title>
<path fill="none" stroke="black" stroke-dasharray="5,2" d="M282.66,-175C206.58,-175 97.77,-175 97.77,-175 97.77,-175 97.77,-205.98 97.77,-205.98"/>
<polygon fill="black" stroke="black" points="94.27,-205.98 97.77,-215.98 101.27,-205.98 94.27,-205.98"/>
</g>
<!-- AlertModule -->
<g id="node5" class="node">
<title>AlertModule</title>
<polygon fill="#8dd3c7" stroke="black" points="705.31,-122 702.31,-126 681.31,-126 678.31,-122 616.69,-122 616.69,-86 705.31,-86 705.31,-122"/>
<text text-anchor="middle" x="661" y="-99.8" font-family="Times,serif" font-size="14.00">AlertModule</text>
</g>
<!-- AlertModule&#45;&gt;ConstraintRuleModule -->
<g id="edge4" class="edge">
<title>AlertModule&#45;&gt;ConstraintRuleModule</title>
<path fill="none" stroke="black" d="M675.72,-122.27C675.72,-140.56 675.72,-166 675.72,-166 675.72,-166 437.38,-166 437.38,-166"/>
<polygon fill="black" stroke="black" points="437.38,-162.5 427.38,-166 437.38,-169.5 437.38,-162.5"/>
</g>
</g>
</svg>
