<?xml version="1.0" encoding="UTF-8" standalone="no"?>
<!DOCTYPE svg PUBLIC "-//W3C//DTD SVG 1.1//EN"
 "http://www.w3.org/Graphics/SVG/1.1/DTD/svg11.dtd">
<!-- Generated by graphviz version 2.47.0 (20210316.0004)
 -->
<!-- Title: dependencies Pages: 1 -->
<svg width="580pt" height="284pt"
 viewBox="0.00 0.00 580.00 284.00" xmlns="http://www.w3.org/2000/svg" xmlns:xlink="http://www.w3.org/1999/xlink">
<g id="graph0" class="graph" transform="scale(1 1) rotate(0) translate(4 280)">
<title>dependencies</title>
<polygon fill="white" stroke="transparent" points="-4,4 -4,-280 576,-280 576,4 -4,4"/>
<text text-anchor="start" x="265.01" y="-42.4" font-family="sans-serif" font-weight="bold" font-size="14.00">Legend</text>
<polygon fill="#ffffb3" stroke="transparent" points="52,-10 52,-30 72,-30 72,-10 52,-10"/>
<text text-anchor="start" x="75.63" y="-15.4" font-family="sans-serif" font-size="14.00"> &#160;Declarations</text>
<polygon fill="#8dd3c7" stroke="transparent" points="165,-10 165,-30 185,-30 185,-10 165,-10"/>
<text text-anchor="start" x="188.73" y="-15.4" font-family="sans-serif" font-size="14.00"> &#160;Module</text>
<polygon fill="#80b1d3" stroke="transparent" points="251,-10 251,-30 271,-30 271,-10 251,-10"/>
<text text-anchor="start" x="274.78" y="-15.4" font-family="sans-serif" font-size="14.00"> &#160;Bootstrap</text>
<polygon fill="#fdb462" stroke="transparent" points="348,-10 348,-30 368,-30 368,-10 348,-10"/>
<text text-anchor="start" x="371.67" y="-15.4" font-family="sans-serif" font-size="14.00"> &#160;Providers</text>
<polygon fill="#fb8072" stroke="transparent" points="444,-10 444,-30 464,-30 464,-10 444,-10"/>
<text text-anchor="start" x="467.73" y="-15.4" font-family="sans-serif" font-size="14.00"> &#160;Exports</text>
<g id="clust1" class="cluster">
<title>cluster_LineItemTableRowModule</title>
<polygon fill="none" stroke="black" stroke-dasharray="1,5" points="8,-70 8,-268 564,-268 564,-70 8,-70"/>
</g>
<g id="clust4" class="cluster">
<title>cluster_LineItemTableRowModule_imports</title>
<polygon fill="none" stroke="black" points="230,-78 230,-130 556,-130 556,-78 230,-78"/>
</g>
<g id="clust2" class="cluster">
<title>cluster_LineItemTableRowModule_declarations</title>
<polygon fill="none" stroke="black" points="16,-78 16,-130 222,-130 222,-78 16,-78"/>
</g>
<g id="clust5" class="cluster">
<title>cluster_LineItemTableRowModule_exports</title>
<polygon fill="none" stroke="black" points="183,-208 183,-260 393,-260 393,-208 183,-208"/>
</g>
<!-- LineItemTableRowComponent -->
<g id="node1" class="node">
<title>LineItemTableRowComponent</title>
<polygon fill="#ffffb3" stroke="black" points="214.46,-122 23.54,-122 23.54,-86 214.46,-86 214.46,-122"/>
<text text-anchor="middle" x="119" y="-99.8" font-family="Times,serif" font-size="14.00">LineItemTableRowComponent</text>
</g>
<!-- LineItemTableRowModule -->
<g id="node2" class="node">
<title>LineItemTableRowModule</title>
<polygon fill="#8dd3c7" stroke="black" points="372.68,-187 369.68,-191 348.68,-191 345.68,-187 203.32,-187 203.32,-151 372.68,-151 372.68,-187"/>
<text text-anchor="middle" x="288" y="-164.8" font-family="Times,serif" font-size="14.00">LineItemTableRowModule</text>
</g>
<!-- LineItemTableRowComponent&#45;&gt;LineItemTableRowModule -->
<g id="edge1" class="edge">
<title>LineItemTableRowComponent&#45;&gt;LineItemTableRowModule</title>
<path fill="none" stroke="black" d="M208.95,-122.11C208.95,-122.11 208.95,-140.99 208.95,-140.99"/>
<polygon fill="black" stroke="black" points="205.45,-140.99 208.95,-150.99 212.45,-140.99 205.45,-140.99"/>
</g>
<!-- LineItemTableRowComponent  -->
<g id="node5" class="node">
<title>LineItemTableRowComponent </title>
<polygon fill="#fb8072" stroke="black" points="385.46,-252 190.54,-252 190.54,-216 385.46,-216 385.46,-252"/>
<text text-anchor="middle" x="288" y="-229.8" font-family="Times,serif" font-size="14.00">LineItemTableRowComponent </text>
</g>
<!-- LineItemTableRowModule&#45;&gt;LineItemTableRowComponent  -->
<g id="edge4" class="edge">
<title>LineItemTableRowModule&#45;&gt;LineItemTableRowComponent </title>
<path fill="none" stroke="black" stroke-dasharray="5,2" d="M288,-187.11C288,-187.11 288,-205.99 288,-205.99"/>
<polygon fill="black" stroke="black" points="284.5,-205.99 288,-215.99 291.5,-205.99 284.5,-205.99"/>
</g>
<!-- ConfigurationSummaryModule -->
<g id="node3" class="node">
<title>ConfigurationSummaryModule</title>
<polygon fill="#8dd3c7" stroke="black" points="548.03,-122 545.03,-126 524.03,-126 521.03,-122 355.97,-122 355.97,-86 548.03,-86 548.03,-122"/>
<text text-anchor="middle" x="452" y="-99.8" font-family="Times,serif" font-size="14.00">ConfigurationSummaryModule</text>
</g>
<!-- ConfigurationSummaryModule&#45;&gt;LineItemTableRowModule -->
<g id="edge2" class="edge">
<title>ConfigurationSummaryModule&#45;&gt;LineItemTableRowModule</title>
<path fill="none" stroke="black" d="M364.16,-122.11C364.16,-122.11 364.16,-140.99 364.16,-140.99"/>
<polygon fill="black" stroke="black" points="360.66,-140.99 364.16,-150.99 367.66,-140.99 360.66,-140.99"/>
</g>
<!-- PricingModule -->
<g id="node4" class="node">
<title>PricingModule</title>
<polygon fill="#8dd3c7" stroke="black" points="337.99,-122 334.99,-126 313.99,-126 310.99,-122 238.01,-122 238.01,-86 337.99,-86 337.99,-122"/>
<text text-anchor="middle" x="288" y="-99.8" font-family="Times,serif" font-size="14.00">PricingModule</text>
</g>
<!-- PricingModule&#45;&gt;LineItemTableRowModule -->
<g id="edge3" class="edge">
<title>PricingModule&#45;&gt;LineItemTableRowModule</title>
<path fill="none" stroke="black" d="M288,-122.11C288,-122.11 288,-140.99 288,-140.99"/>
<polygon fill="black" stroke="black" points="284.5,-140.99 288,-150.99 291.5,-140.99 284.5,-140.99"/>
</g>
</g>
</svg>
